<svg width="25" height="25" viewBox="0 0 25 25" fill="none" xmlns="http://www.w3.org/2000/svg">
<path d="M12.5 0C5.6 0 0 5.6 0 12.5C0 19.4 5.6 25 12.5 25C19.4 25 25 19.4 25 12.5C25 5.6 19.4 0 12.5 0ZM6.3375 20.35C6.875 19.225 10.15 18.125 12.5 18.125C14.85 18.125 18.1375 19.225 18.6625 20.35C16.9625 21.7 14.825 22.5 12.5 22.5C10.175 22.5 8.0375 21.7 6.3375 20.35ZM20.45 18.5375C18.6625 16.3625 14.325 15.625 12.5 15.625C10.675 15.625 6.3375 16.3625 4.55 18.5375C3.275 16.8625 2.5 14.775 2.5 12.5C2.5 6.9875 6.9875 2.5 12.5 2.5C18.0125 2.5 22.5 6.9875 22.5 12.5C22.5 14.775 21.725 16.8625 20.45 18.5375ZM12.5 5C10.075 5 8.125 6.95 8.125 9.375C8.125 11.8 10.075 13.75 12.5 13.75C14.925 13.75 16.875 11.8 16.875 9.375C16.875 6.95 14.925 5 12.5 5ZM12.5 11.25C11.4625 11.25 10.625 10.4125 10.625 9.375C10.625 8.3375 11.4625 7.5 12.5 7.5C13.5375 7.5 14.375 8.3375 14.375 9.375C14.375 10.4125 13.5375 11.25 12.5 11.25Z" fill="#484A4A"/>
</svg>
