<svg width="25" height="25" viewBox="0 0 25 25" fill="none" xmlns="http://www.w3.org/2000/svg">
<path d="M3.64587 9.66875C3.64587 8.64367 3.64587 8.13113 3.84853 7.741C4.01931 7.41224 4.28736 7.14418 4.61612 6.97341C5.00625 6.77075 5.51879 6.77075 6.54387 6.77075H18.4562C19.4813 6.77075 19.9938 6.77075 20.384 6.97341C20.7127 7.14418 20.9808 7.41224 21.1516 7.741C21.3542 8.13113 21.3542 8.64367 21.3542 9.66875V16.3728C21.3542 17.3978 21.3542 17.9104 21.1516 18.3005C20.9808 18.6293 20.7127 18.8973 20.384 19.0681C19.9938 19.2708 19.4813 19.2708 18.4562 19.2708H6.54388C5.51879 19.2708 5.00625 19.2708 4.61612 19.0681C4.28736 18.8973 4.01931 18.6293 3.84853 18.3005C3.64587 17.9104 3.64587 17.3978 3.64587 16.3728V9.66875Z" stroke="white"/>
<path d="M3.64587 10.9375L21.3542 10.9375" stroke="white" stroke-linecap="round"/>
<circle cx="6.77083" cy="16.1458" r="0.520833" fill="white"/>
</svg>
