<svg width="19" height="19" viewBox="0 0 19 19" fill="none" xmlns="http://www.w3.org/2000/svg">
<path d="M8.41784 0C13.0645 0 16.8357 3.77119 16.8357 8.41784C16.8357 13.0645 13.0645 16.8357 8.41784 16.8357C3.77119 16.8357 0 13.0645 0 8.41784C0 3.77119 3.77119 0 8.41784 0ZM8.41784 14.965C12.0347 14.965 14.965 12.0347 14.965 8.41784C14.965 4.80004 12.0347 1.87063 8.41784 1.87063C4.80004 1.87063 1.87063 4.80004 1.87063 8.41784C1.87063 12.0347 4.80004 14.965 8.41784 14.965ZM16.354 15.0315L19 17.6765L17.6765 19L15.0315 16.354L16.354 15.0315Z" fill="white"/>
</svg>
