<svg width="10" height="15" viewBox="0 0 10 15" fill="none" xmlns="http://www.w3.org/2000/svg">
<path fill-rule="evenodd" clip-rule="evenodd" d="M0 5C0 2.23571 2.23571 0 5 0C7.76429 0 10 2.23571 10 5C10 8.75 5 14.2857 5 14.2857C5 14.2857 2.50046 11.5184 1.03594 8.57148H5C6.97245 8.57148 8.57143 6.9725 8.57143 5.00005C8.57143 3.02761 6.97245 1.42862 5 1.42862C3.02755 1.42862 1.42857 3.02761 1.42857 5.00005C1.42857 5.80406 1.69425 6.54601 2.1426 7.14291H0.423086C0.160133 6.39939 0 5.6711 0 5ZM5 7.14286C6.18347 7.14286 7.14286 6.18347 7.14286 5C7.14286 3.81653 6.18347 2.85714 5 2.85714C3.81653 2.85714 2.85714 3.81653 2.85714 5C2.85714 6.18347 3.81653 7.14286 5 7.14286Z" fill="#262827"/>
</svg>
